<?xml version="1.0" encoding="UTF-8"?><svg id="Layer_1" xmlns="http://www.w3.org/2000/svg" viewBox="0 0 1200 1200"><defs><style>.cls-1{fill:#fff;}</style></defs><path class="cls-1" d="M599.41,935.57l.36,212.43c-302.65,0-548-245.35-548-548S297.12,52,599.77,52s548,245.35,548,548l-212.43-.94c0-185.85-150.66-336.51-336.51-336.51s-336.51,150.66-336.51,336.51,150.66,336.51,336.51,336.51h.58Z"/><path class="cls-1" d="M1053.21,709.04h-246.95c-52.77,0-95.54,42.77-95.54,95.54v246.95c0,52.77,42.77,95.54,95.54,95.54h246.95c52.77,0,95.54-42.77,95.54-95.54v-246.95c0-52.77-42.77-95.54-95.54-95.54Zm-229.28,303.18c-7.82,7.82-20.49,7.82-28.31,0-7.82-7.82-7.82-20.49,0-28.31l65.87-65.84-65.87-65.82c-7.82-7.82-7.82-20.49,0-28.31,7.82-7.82,20.49-7.82,28.31,0l79.99,79.97s.02,.04,.02,.04c7.8,7.82,7.78,20.49-.02,28.27l-79.99,79.99Zm225.78,25.83h-119.96c-11.05,0-20-8.95-20-20s8.95-19.98,20-19.98h119.96c11.05,0,20,8.95,20,19.98s-8.95,20-20,20Z"/><path class="cls-1" d="M815.96,600h-120.65c-52.77,0-95.54,42.77-95.54,95.54v120.65c-119.39,0-216.19-96.8-216.19-216.19s96.8-216.19,216.19-216.19,216.19,96.8,216.19,216.19Z"/></svg>